<svg width="175" height="25" viewBox="0 0 175 25" fill="none" xmlns="http://www.w3.org/2000/svg">
<g clip-path="url(#clip0_15178_15507)">
<path d="M10.3434 15.746H10.0639L5.03195 25.0002H0L9.92412 6.35376H10.623L20.5471 25.0002H15.3754L10.3434 15.746Z" fill="white"/>
<path d="M46.9649 15.746H46.6854L41.6534 25.0002H36.4817L46.4058 6.35376H47.1047L57.0288 25.0002H51.8571L46.9649 15.746Z" fill="white"/>
<path d="M28.0955 6.35359H29.0739L32.8479 15.3315H33.2672L38.1594 6.35359L46.6858 0L33.6866 25H32.8479L28.6546 15.7459H28.375L24.1818 25H23.3431L14.1179 6.35359H19.8487L23.9022 15.3315H24.3215L28.0955 6.35359Z" fill="#EB0E71"/>
<path d="M58.7063 6.35376H67.652C72.4044 6.35376 75.4795 8.83995 75.4795 12.8455C75.4795 15.4698 74.2215 17.2654 72.4044 18.3703V18.7847L76.5977 24.7239V25.0002H71.2862L67.5122 19.6134H63.1792V25.0002H58.7063V6.35376ZM67.3725 10.2212H63.1792V15.746H67.3725C69.4691 15.746 70.5873 14.7792 70.5873 12.9836C70.7271 11.3261 69.4691 10.2212 67.3725 10.2212Z" fill="white"/>
<path d="M86.1024 25.0002H78.275V6.35376H86.1024C92.3924 6.35376 96.1664 10.3593 96.1664 15.6079C96.1664 20.8565 92.3924 25.0002 86.1024 25.0002ZM82.7478 10.2212V21.1328H85.6831C88.898 21.1328 91.2742 19.3372 91.2742 15.746C91.2742 12.1549 88.898 10.3593 85.6831 10.3593H82.7478V10.2212Z" fill="white"/>
<path d="M98.6821 6.07751H106.789C111.542 6.07751 114.337 8.28746 114.337 12.293C114.337 16.5748 111.262 18.7847 106.51 18.7847H101.617V24.4477H98.5423V6.07751H98.6821ZM106.649 8.70182H101.757V16.1604H106.649C109.445 16.1604 111.122 15.0554 111.122 12.4311C111.262 9.94492 109.445 8.70182 106.649 8.70182Z" fill="white"/>
<path d="M116.434 15.3316C116.434 9.94486 120.207 5.66309 126.218 5.66309C132.228 5.66309 136.142 9.94486 136.142 15.3316C136.142 20.7183 132.368 25.0001 126.218 25.0001C120.207 25.0001 116.434 20.7183 116.434 15.3316ZM132.927 15.3316C132.927 11.4642 130.271 8.56364 126.218 8.56364C122.304 8.56364 119.648 11.4642 119.648 15.3316C119.648 19.199 122.304 22.0996 126.218 22.0996C130.271 22.0996 132.927 19.199 132.927 15.3316Z" fill="white"/>
<path d="M138.519 15.3316C138.519 9.94486 142.293 5.66309 148.303 5.66309C154.314 5.66309 158.227 9.94486 158.227 15.3316C158.227 20.7183 154.453 25.0001 148.303 25.0001C142.293 25.0001 138.519 20.7183 138.519 15.3316ZM155.012 15.3316C155.012 11.4642 152.357 8.56364 148.303 8.56364C144.389 8.56364 141.734 11.4642 141.734 15.3316C141.734 19.199 144.389 22.0996 148.303 22.0996C152.357 22.0996 155.012 19.199 155.012 15.3316Z" fill="white"/>
<path d="M161.442 24.5858V6.07751H164.517V21.9615H175V24.7239H161.442V24.5858Z" fill="white"/>
</g>
<defs>
<clipPath id="clip0_15178_15507">
<rect width="175" height="25" fill="white"/>
</clipPath>
</defs>
</svg>
