<svg xmlns="http://www.w3.org/2000/svg" style="display: none;">
  <symbol id="window-control_close" viewBox="0 0 30 30">
      <line x1="19.5" y1="10.5" x2="10.5" y2="19.5" fill="none" stroke="currentcolor" stroke-linecap="round"/>
<line x1="10.5" y1="10.5" x2="19.5" y2="19.5" fill="none" stroke="currentcolor" stroke-linecap="round"/>
  </symbol>

  <symbol id="window-control_maximize" viewBox="0 0 30 30">
      <rect x="10.5" y="10.5" width="9" height="9" fill="none" stroke="currentcolor" />
  </symbol>

  <symbol id="window-control_restore" viewBox="0 0 30 30">
      <polyline points="13.5 12 13.5 9.5 20.5 9.5 20.5 16.5 18 16.5" fill="none" stroke="currentcolor"/>
<rect x="9.5" y="13.5" width="7" height="7" fill="none" stroke="currentcolor"/>
  </symbol>

  <symbol id="window-control_minimize" viewBox="0 0 30 30">
      <line x1="10" y1="19.5" x2="20" y2="19.5" fill="none" stroke="currentcolor"/>
  </symbol>

  <symbol id="window-control_support" viewBox="0 0 30 30">
      <rect x="13.5" y="19" width="2" height="2" fill="currentcolor"/>
      <path d="M16.5,9H12v1h4.5A1.5,1.5,0,0,1,18,11.5v1A1.5,1.5,0,0,1,16.5,14H14v3h1V15h1.5A2.5,2.5,0,0,0,19,12.5v-1A2.5,2.5,0,0,0,16.5,9Z" fill="currentcolor"/>
  </symbol>

  <symbol id="window-control_settings" viewBox="0 0 30 30">
      <path d="M22,16.3V13.7H19.81a4.94,4.94,0,0,0-.49-1.18L20.87,11,19,9.13l-1.55,1.55a5,5,0,0,0-1.18-.49V8H13.7v2.19a5,5,0,0,0-1.18.49L11,9.13,9.13,11l1.55,1.55a5,5,0,0,0-.49,1.18H8v2.6h2.19a5,5,0,0,0,.49,1.18L9.13,19,11,20.87l1.55-1.55a4.94,4.94,0,0,0,1.18.49V22h2.6V19.81a4.94,4.94,0,0,0,1.18-.49L19,20.87,20.87,19l-1.55-1.55a4.94,4.94,0,0,0,.49-1.18Zm-7,1.45A2.75,2.75,0,1,1,17.75,15,2.75,2.75,0,0,1,15,17.75Z" fill="currentcolor"/>
</symbol>

<symbol id="window-control_bug-report"  viewBox="0 0 30 30" >
      <path d="M22,16.3V13.7H19.81a4.94,4.94,0,0,0-.49-1.18L20.87,11,19,9.13l-1.55,1.55a5,5,0,0,0-1.18-.49V8H13.7v2.19a5,5,0,0,0-1.18.49L11,9.13,9.13,11l1.55,1.55a5,5,0,0,0-.49,1.18H8v2.6h2.19a5,5,0,0,0,.49,1.18L9.13,19,11,20.87l1.55-1.55a4.94,4.94,0,0,0,1.18.49V22h2.6V19.81a4.94,4.94,0,0,0,1.18-.49L19,20.87,20.87,19l-1.55-1.55a4.94,4.94,0,0,0,.49-1.18Zm-7,1.45A2.75,2.75,0,1,1,17.75,15,2.75,2.75,0,0,1,15,17.75Z" fill="currentcolor"/> 
</symbol>
<symbol id="window-control_discord" viewBox="0 0 640 512" >
    <path d="M524.531,69.836a1.5,1.5,0,0,0-.764-.7A485.065,485.065,0,0,0,404.081,32.03a1.816,1.816,0,0,0-1.923.91,337.461,337.461,0,0,0-14.9,30.6,447.848,447.848,0,0,0-134.426,0,309.541,309.541,0,0,0-15.135-30.6,1.89,1.89,0,0,0-1.924-.91A483.689,483.689,0,0,0,116.085,69.137a1.712,1.712,0,0,0-.788.676C39.068,183.651,18.186,294.69,28.43,404.354a2.016,2.016,0,0,0,.765,1.375A487.666,487.666,0,0,0,176.02,479.918a1.9,1.9,0,0,0,2.063-.676A348.2,348.2,0,0,0,208.12,430.4a1.86,1.86,0,0,0-1.019-2.588,321.173,321.173,0,0,1-45.868-21.853,1.885,1.885,0,0,1-.185-3.126c3.082-2.309,6.166-4.711,9.109-7.137a1.819,1.819,0,0,1,1.9-.256c96.229,43.917,200.41,43.917,295.5,0a1.812,1.812,0,0,1,1.924.233c2.944,2.426,6.027,4.851,9.132,7.16a1.884,1.884,0,0,1-.162,3.126,301.407,301.407,0,0,1-45.89,21.83,1.875,1.875,0,0,0-1,2.611,391.055,391.055,0,0,0,30.014,48.815,1.864,1.864,0,0,0,2.063.7A486.048,486.048,0,0,0,610.7,405.729a1.882,1.882,0,0,0,.765-1.352C623.729,277.594,590.933,167.465,524.531,69.836ZM222.491,337.58c-28.972,0-52.844-26.587-52.844-59.239S193.056,219.1,222.491,219.1c29.665,0,53.306,26.82,52.843,59.239C275.334,310.993,251.924,337.58,222.491,337.58Zm195.38,0c-28.971,0-52.843-26.587-52.843-59.239S388.437,219.1,417.871,219.1c29.667,0,53.307,26.82,52.844,59.239C470.715,310.993,447.538,337.58,417.871,337.58Z"  fill="currentcolor" />
</symbol> 
</svg>



